<svg width="434" height="434" viewBox="0 0 434 434" fill="none" xmlns="http://www.w3.org/2000/svg">
    <path
        d="M265.376 5.77229C266.125 5.94631 266.874 6.12034 267.646 6.29963C277.28 8.57931 286.315 11.2685 295.337 15.3856C297.891 16.5512 300.43 17.5583 303.063 18.5223C316.746 23.9229 330.931 31.5469 342.376 40.7723C344.167 42.0653 345.958 43.3569 347.751 44.6473C357.372 51.8245 365.922 60.2743 374.376 68.7723C375.304 69.6592 376.232 70.546 377.188 71.4598C379.376 73.7723 379.376 73.7723 379.376 75.7723C380.036 75.7723 380.696 75.7723 381.376 75.7723C382.821 77.3543 382.821 77.3543 384.501 79.5848C385.433 80.8204 385.433 80.8204 386.384 82.0809C387.041 82.9691 387.699 83.8572 388.376 84.7723C389.033 85.6501 389.691 86.528 390.368 87.4324C399.348 99.5744 406.551 112.333 413.376 125.772C413.884 126.762 414.392 127.752 414.915 128.772C418.751 136.692 421.176 145.128 423.696 153.536C424.272 155.43 424.884 157.314 425.505 159.194C435.237 189.88 435.616 226.32 429.376 257.772C429.248 258.458 429.12 259.144 428.988 259.851C425.028 280.96 416.873 300.612 407.376 319.772C406.82 320.899 406.265 322.026 405.692 323.186C404.598 325.388 403.495 327.584 402.376 329.772C401.716 329.772 401.056 329.772 400.376 329.772C400.157 330.432 399.938 331.092 399.712 331.772C397.927 335.781 395.514 339.188 393.001 342.772C392.519 343.471 392.037 344.17 391.54 344.889C386.177 352.613 386.177 352.613 383.376 355.772C382.716 355.772 382.056 355.772 381.376 355.772C381.128 356.337 380.881 356.901 380.626 357.483C374.33 369.012 361.811 379.037 351.376 386.772C350.13 387.733 348.885 388.695 347.642 389.659C340.997 394.776 334.491 399.613 326.989 403.425C324.176 404.875 321.513 406.496 318.813 408.147C308.937 413.942 298.092 419.096 287.001 422.061C282.71 423.223 278.491 424.618 274.258 425.972C269.667 427.422 265.051 428.621 260.376 429.772C259.386 430.102 258.396 430.432 257.376 430.772C243.677 432.879 229.891 432.989 216.063 433.022C215.212 433.027 214.361 433.032 213.483 433.038C198.086 433.112 183.407 431.67 168.313 428.46C166.776 428.135 166.776 428.135 165.207 427.804C157.025 426.02 149.205 423.773 141.376 420.772C139.885 420.206 139.885 420.206 138.364 419.628C127.281 415.203 116.528 409.703 106.173 403.78C104.27 402.713 102.334 401.734 100.376 400.772C100.376 400.112 100.376 399.452 100.376 398.772C99.48 398.514 98.5841 398.257 97.6611 397.991C94.3768 396.773 92.462 395.52 89.8134 393.272C86.8653 390.815 83.9098 388.397 80.8408 386.093C79.9476 385.421 79.9476 385.421 79.0363 384.735C77.8577 383.852 76.6759 382.973 75.4909 382.098C74.083 381.036 72.7242 379.909 71.3759 378.772C71.3759 378.112 71.3759 377.452 71.3759 376.772C70.8255 376.548 70.275 376.324 69.7079 376.093C66.6501 374.361 64.5277 372.15 62.0634 369.647C61.1598 368.737 60.2561 367.827 59.3251 366.889C53.385 360.693 48.0042 354.183 43.0009 347.21C42.1585 346.036 42.1585 346.036 41.299 344.839C29.8147 328.659 20.7319 311.192 13.3759 292.772C13.126 292.154 12.8761 291.535 12.6186 290.898C9.08123 282.013 6.59304 273.068 4.62591 263.71C4.42731 262.766 4.22872 261.822 4.0241 260.849C1.0668 246.003 -0.0363639 231.497 0.000910632 216.397C0.00178679 215.524 0.00266295 214.651 0.00356566 213.751C0.192407 156.406 23.832 103.245 64.0634 62.7723C64.8348 61.9953 65.6063 61.2183 66.4011 60.4178C71.7606 55.1249 77.4089 50.365 83.3759 45.7723C84.3066 45.053 85.2373 44.3337 86.1962 43.5926C109.085 26.756 133.09 15.4569 160.376 7.77229C161.057 7.57361 161.739 7.37494 162.441 7.17024C195.199 -2.33537 232.307 -1.96352 265.376 5.77229Z"
        fill="url(#paint0_linear_155_107)" />
    <path
        d="M215.313 78.5225C216.948 78.5109 216.948 78.5109 218.616 78.499C229.143 78.524 239.1 79.8888 249.001 83.5225C249.725 83.7841 250.449 84.0458 251.196 84.3154C257.031 86.497 262.266 89.1872 267.376 92.7725C268.045 93.2327 268.714 93.6929 269.403 94.167C288.49 107.887 301.853 125.617 308.751 148.085C309.014 148.933 309.277 149.781 309.548 150.655C310.976 155.534 311.664 159.691 311.376 164.772C310.141 165.162 308.906 165.551 307.633 165.952C285.803 173.068 268.072 183.985 251.376 199.772C250.615 200.48 249.854 201.188 249.071 201.917C231.624 218.669 219.825 241.535 214.137 264.886C213.376 267.772 213.376 267.772 212.376 268.772C190.65 270.312 170.175 260.865 153.899 247.015C138.226 233.089 127.363 216.223 122.376 195.772C122.151 194.882 121.927 193.991 121.696 193.073C118.418 177.335 119.433 160.978 124.376 145.772C124.809 144.338 124.809 144.338 125.251 142.874C129.544 129.801 136.616 117.513 146.376 107.772C147.036 107.772 147.696 107.772 148.376 107.772C148.619 107.189 148.863 106.605 149.114 106.003C155.979 93.866 176.501 85.3828 189.26 81.354C197.93 78.9707 206.355 78.4591 215.313 78.5225Z"
        fill="#FDFEFE" />
    <path
        d="M367.376 171.772C367.984 198.749 363.152 224.956 352.376 249.772C352.081 250.486 351.785 251.201 351.481 251.936C343.2 271.525 331.44 289.845 317.376 305.772C316.924 306.285 316.472 306.797 316.006 307.325C298.726 326.785 278.876 342.536 255.376 353.772C254.617 354.178 253.857 354.584 253.075 355.003C247.382 358.041 241.478 360.341 235.438 362.585C234.176 363.057 234.176 363.057 232.887 363.538C232.091 363.828 231.294 364.118 230.473 364.417C229.398 364.809 229.398 364.809 228.302 365.209C226.376 365.772 226.376 365.772 223.376 365.772C223.306 355.618 223.253 345.464 223.22 335.309C223.205 330.592 223.184 325.876 223.149 321.159C223.117 316.594 223.099 312.03 223.091 307.465C223.086 305.736 223.075 304.008 223.059 302.28C222.747 267.985 234.86 236.019 258.695 211.097C268.995 200.666 280.42 192.571 293.376 185.772C294.242 185.312 295.108 184.852 296.001 184.378C318.281 173.412 342.917 171.097 367.376 171.772Z"
        fill="#FDFEFE" />
    <path
        d="M65.3764 169.772C79.2882 168.946 92.7034 171.436 106.376 173.772C106.441 174.416 106.506 175.059 106.572 175.722C108.646 195.689 112.636 212.178 122.376 229.772C122.92 230.76 123.464 231.747 124.025 232.764C128.745 240.708 134.905 247.243 141.376 253.772C142.106 254.515 142.836 255.257 143.587 256.022C153.024 264.989 164.467 271.379 176.501 276.147C177.633 276.611 177.633 276.611 178.787 277.085C188.788 280.814 198.613 281.815 209.376 283.772C209.376 310.832 209.376 337.892 209.376 365.772C202.702 364.289 197.151 362.779 190.939 360.272C190.078 359.926 189.217 359.579 188.329 359.222C170.886 351.994 154.845 341.861 140.376 329.772C139.853 329.345 139.33 328.917 138.791 328.476C120.376 313.415 106.195 295.717 93.3764 275.772C92.7873 274.865 92.1982 273.957 91.5912 273.022C90.3764 270.772 90.3764 270.772 90.3764 267.772C89.7164 267.772 89.0564 267.772 88.3764 267.772C87.9988 266.889 87.9988 266.889 87.6137 265.987C86.4519 263.27 85.2891 260.552 84.1264 257.835C83.7306 256.909 83.3349 255.982 82.9271 255.028C82.534 254.11 82.1408 253.191 81.7357 252.245C81.3399 251.317 80.9441 250.39 80.5363 249.434C79.8181 247.786 79.0804 246.146 78.3122 244.521C75.343 238.221 73.5315 231.761 71.8139 225.022C71.5109 223.834 71.2078 222.646 70.8957 221.422C66.6012 204.102 64.8595 187.595 65.3764 169.772Z"
        fill="#FBFEFE" />
    <defs>
        <linearGradient id="paint0_linear_155_107" x1="92" y1="39.5" x2="463" y2="433"
            gradientUnits="userSpaceOnUse">
            <stop stop-color="#FF2C99" />
            <stop offset="1" stop-color="#5202FF" />
        </linearGradient>
    </defs>
</svg>